# xmcd
#
# Track frame offsets: 
#        150
#        10925
#        24205
#        39972
#        52897
#        64617
#        77900
#        90057
#        102337
#        115925
#        126567
#        144077
#        157895
#        174747
#        189762
#
# Disc length: 2710 seconds
#
# Revision: 3
# Processed by: cddbd v1.5.2PL0 Copyright (c) Steve Scherf et al.
# Submitted via: ExactAudioCopyFreeDBPlugin 1.0
#
DISCID=a90a940f
DTITLE=Anita Carter - Apalachian Angel - CD6
DYEAR=2004
DGENRE=Country
TTITLE0=Where Is The Start Of Lonely
TTITLE1=Tulsa Country
TTITLE2=Angel's Heaven
TTITLE3=Loving Him Was Easier
TTITLE4=I'd Rather Be Sorry
TTITLE5=Until It's Time For You To Go
TTITLE6=Loving Him Was Easier
TTITLE7=Summer Sand
TTITLE8=A Whole Lotta Lovin'
TTITLE9=Anita Carter and Helen Carter - I Ain't Goin' To Work Tomorrow
TTITLE10=Anita Carter and Helen Carter - I Never Will Marry
TTITLE11=Anita Carter and Helen Carter - Once Around The Briar Patch
TTITLE12=Anita Carter and Jerry Hensley - Gold Watch And Chain
TTITLE13=Anita Carter and Jerry Hensley - It's All Over Now Baby Blue
TTITLE14=God Is
EXTD=
EXTT0=
EXTT1=
EXTT2=
EXTT3=
EXTT4=
EXTT5=
EXTT6=
EXTT7=
EXTT8=
EXTT9=
EXTT10=
EXTT11=
EXTT12=
EXTT13=
EXTT14=
PLAYORDER=
